{"asset":{"version":"2.0","generator":"VECTARY"},"nodes":[{"translation":[0,0,0],"scale":[0.001,0.001,0.001],"rotation":[-0.7071067811865475,0,0,0.7071067811865476],"name":"email-svgrepo-com","children":[1]},{"translation":[0,0,0],"scale":[1,0.9999999999999999,0.9999999999999999],"rotation":[0.7137417011476324,0,0,0.7004090119657828],"name":"Group","children":[2]},{"translation":[0,0,0],"scale":[1,1,1],"rotation":[0,0,0,1],"name":"Path","mesh":0}],"materials":[{"pbrMetallicRoughness":{"baseColorFactor":[0,0,0,1],"metallicFactor":0,"roughnessFactor":1},"name":"","emissiveFactor":[0,0,0],"extensions":{},"alphaMode":"OPAQUE","doubleSided":true}],"meshes":[{"primitives":[{"mode":4,"attributes":{"POSITION":1,"NORMAL":2,"TEXCOORD_0":3},"material":0,"indices":0}]}],"accessors":[{"bufferView":0,"byteOffset":0,"componentType":5125,"count":2178,"type":"SCALAR"},{"bufferView":1,"byteOffset":0,"componentType":5126,"count":1148,"max":[37.64699935913086,25.557998657226562,7.299999713897705],"min":[-37.64699935913086,-25.558002471923828,0.20000000298023224],"type":"VEC3"},{"bufferView":2,"byteOffset":0,"componentType":5126,"count":1148,"type":"VEC3"},{"bufferView":3,"byteOffset":0,"componentType":5126,"count":1148,"type":"VEC2"}],"bufferViews":[{"buffer":0,"byteOffset":0,"byteLength":8712,"target":34963},{"buffer":0,"byteOffset":8712,"byteLength":13776,"target":34962},{"buffer":0,"byteOffset":22488,"byteLength":13776,"target":34962},{"buffer":0,"byteOffset":36264,"byteLength":9184,"target":34962}],"scene":0,"scenes":[{"nodes":[0],"name":"mail"}],"extensionsUsed":["KHR_texture_transform"],"buffers":[{"byteLength":45448,"uri":"mail.bin"}]}