{"asset":{"version":"2.0","generator":"VECTARY"},"nodes":[{"translation":[-0.03550417232230471,1.1102230246251566e-19,-0.0007825619020350985],"scale":[0.0040003625724801695,0.004002780251752228,0.004002780251752228],"rotation":[-0.7071067811865475,0,0,0.7071067811865476],"name":"skipo-logo-dark - baked","children":[1,2,3]},{"translation":[-5.57090111783328,0.08693431480803407,-9.438749997369094],"scale":[1,1,0.55005500550055],"rotation":[-0.7040086441352432,0,0,0.7101914030617777],"name":"Path","mesh":0},{"translation":[5.570899963378913,-0.04329402083996037,9.43448317784474],"scale":[1,1,0.55005500550055],"rotation":[-0.7040086441352432,0,0,0.7101914030617777],"name":"Path","mesh":1},{"translation":[0.004598617553718043,0.00004199703170831602,-0.004648588450224274],"scale":[1,1,0.5555555555555555],"rotation":[-0.7040086441352432,0,0,0.7101914030617777],"name":"Path","mesh":2}],"materials":[{"pbrMetallicRoughness":{"baseColorFactor":[0,0.6940805197968822,0.4313402138074096,1],"metallicFactor":0,"roughnessFactor":1},"name":"Sienna","emissiveFactor":[0,0,0],"extensions":{},"alphaMode":"OPAQUE","doubleSided":true},{"pbrMetallicRoughness":{"baseColorFactor":[0,0.3250369625210763,0.42590528570714575,1],"metallicFactor":0,"roughnessFactor":1},"name":"Emerald Dream","emissiveFactor":[0,0,0],"extensions":{},"alphaMode":"OPAQUE","doubleSided":true},{"pbrMetallicRoughness":{"baseColorFactor":[0.00026154375454849144,0.5113978188848795,0.5924380303208466,1],"metallicFactor":0,"roughnessFactor":1},"name":"Country Summer","emissiveFactor":[0,0,0],"extensions":{},"alphaMode":"OPAQUE","doubleSided":true}],"meshes":[{"primitives":[{"mode":4,"attributes":{"POSITION":1,"NORMAL":2,"TEXCOORD_0":3},"material":0,"indices":0}]},{"primitives":[{"mode":4,"attributes":{"POSITION":5,"NORMAL":6,"TEXCOORD_0":7},"material":1,"indices":4}]},{"primitives":[{"mode":4,"attributes":{"POSITION":9,"NORMAL":10,"TEXCOORD_0":11},"material":2,"indices":8}]}],"accessors":[{"bufferView":0,"byteOffset":0,"componentType":5125,"count":720,"type":"SCALAR"},{"bufferView":1,"byteOffset":0,"componentType":5126,"count":366,"max":[11.146600723266602,22.236202239990234,19.80000114440918],"min":[-11.146599769592285,-22.236202239990234,2.6645352591003757e-15],"type":"VEC3"},{"bufferView":2,"byteOffset":0,"componentType":5126,"count":366,"type":"VEC3"},{"bufferView":3,"byteOffset":0,"componentType":5126,"count":366,"type":"VEC2"},{"bufferView":4,"byteOffset":0,"componentType":5125,"count":720,"type":"SCALAR"},{"bufferView":5,"byteOffset":0,"componentType":5126,"count":366,"max":[11.146599769592285,22.2408504486084,19.799999237060547],"min":[-11.146600723266602,-22.2408504486084,-3.1646743003932443e-9],"type":"VEC3"},{"bufferView":6,"byteOffset":0,"componentType":5126,"count":366,"type":"VEC3"},{"bufferView":7,"byteOffset":0,"componentType":5126,"count":366,"type":"VEC2"},{"bufferView":8,"byteOffset":0,"componentType":5125,"count":732,"type":"SCALAR"},{"bufferView":9,"byteOffset":0,"componentType":5126,"count":372,"max":[5.5709991455078125,12.801700592041016,19.799999237060547],"min":[-5.5709991455078125,-12.801700592041016,-2.7755575615628914e-17],"type":"VEC3"},{"bufferView":10,"byteOffset":0,"componentType":5126,"count":372,"type":"VEC3"},{"bufferView":11,"byteOffset":0,"componentType":5126,"count":372,"type":"VEC2"}],"bufferViews":[{"buffer":0,"byteOffset":0,"byteLength":2880,"target":34963},{"buffer":0,"byteOffset":2880,"byteLength":4392,"target":34962},{"buffer":0,"byteOffset":7272,"byteLength":4392,"target":34962},{"buffer":0,"byteOffset":11664,"byteLength":2928,"target":34962},{"buffer":0,"byteOffset":14592,"byteLength":2880,"target":34963},{"buffer":0,"byteOffset":17472,"byteLength":4392,"target":34962},{"buffer":0,"byteOffset":21864,"byteLength":4392,"target":34962},{"buffer":0,"byteOffset":26256,"byteLength":2928,"target":34962},{"buffer":0,"byteOffset":29184,"byteLength":2928,"target":34963},{"buffer":0,"byteOffset":32112,"byteLength":4464,"target":34962},{"buffer":0,"byteOffset":36576,"byteLength":4464,"target":34962},{"buffer":0,"byteOffset":41040,"byteLength":2976,"target":34962}],"scene":0,"scenes":[{"nodes":[0],"name":"skipo"}],"extensionsUsed":["KHR_texture_transform"],"buffers":[{"byteLength":44016,"uri":"skipo.bin"}]}