{"asset":{"version":"2.0","generator":"VECTARY"},"nodes":[{"translation":[0,0,0],"scale":[0.001,0.001,0.001],"rotation":[-0.7071067811865475,0,0,0.7071067811865476],"name":"df3abfaa6336c64811b77e86b9cb17b0","children":[1]},{"translation":[0,0,0],"scale":[1,1,1],"rotation":[0.7071067811865475,0,0,0.7071067811865476],"name":"Group","children":[2]},{"translation":[0,0,0],"scale":[1,1,1],"rotation":[0,0,0,1],"name":"Group","children":[3]},{"translation":[0,0,0],"scale":[1,1,1],"rotation":[0,0,0,1],"name":"post-linkedin","children":[4]},{"translation":[0,0,0],"scale":[1,1,1],"rotation":[0,0,0,1],"name":"Path","mesh":0}],"materials":[{"pbrMetallicRoughness":{"baseColorFactor":[0,0,0,1],"metallicFactor":0,"roughnessFactor":1},"name":"","emissiveFactor":[0,0,0],"extensions":{},"alphaMode":"OPAQUE","doubleSided":true}],"meshes":[{"primitives":[{"mode":4,"attributes":{"POSITION":1,"NORMAL":2,"TEXCOORD_0":3},"material":0,"indices":0}]}],"accessors":[{"bufferView":0,"byteOffset":0,"componentType":5125,"count":4536,"type":"SCALAR"},{"bufferView":1,"byteOffset":0,"componentType":5126,"count":2259,"max":[490,490,41.900001525878906],"min":[-490,-490,0.20000000298023224],"type":"VEC3"},{"bufferView":2,"byteOffset":0,"componentType":5126,"count":2259,"type":"VEC3"},{"bufferView":3,"byteOffset":0,"componentType":5126,"count":2259,"type":"VEC2"}],"bufferViews":[{"buffer":0,"byteOffset":0,"byteLength":18144,"target":34963},{"buffer":0,"byteOffset":18144,"byteLength":27108,"target":34962},{"buffer":0,"byteOffset":45252,"byteLength":27108,"target":34962},{"buffer":0,"byteOffset":72360,"byteLength":18072,"target":34962}],"scene":0,"scenes":[{"nodes":[0],"name":"linkedin"}],"extensionsUsed":["KHR_texture_transform"],"buffers":[{"byteLength":90432,"uri":"linkedin.bin"}]}