{"asset":{"version":"2.0","generator":"VECTARY"},"nodes":[{"translation":[0,0,0],"scale":[0.001,0.001,0.001],"rotation":[-0.7071067811865475,0,0,0.7071067811865476],"name":"Vector 2","children":[1]},{"translation":[-0.8035021215831082,9.691162490953662,5.346521692727267e-18],"scale":[1.988023671605222,1.9880236716052224,1.9880236716052222],"rotation":[0.7084475627974903,-0.010802914175064524,0.010759473287656493,0.7055987397566654],"name":"Path","mesh":0},{"translation":[0.07899123264381998,0.08320948237730322,0.20023962590995573],"scale":[1,1,1],"rotation":[-0.1903494800013874,0.1941917387166976,0.038442398229621366,0.9615502202671178],"name":"Camera","camera":0}],"materials":[{"pbrMetallicRoughness":{"baseColorFactor":[1,1,1,1],"metallicFactor":0,"roughnessFactor":1},"name":"","emissiveFactor":[0,0,0],"extensions":{},"alphaMode":"OPAQUE","doubleSided":true}],"meshes":[{"primitives":[{"mode":4,"attributes":{"POSITION":1,"NORMAL":2,"TEXCOORD_0":3},"material":0,"indices":0}]}],"accessors":[{"bufferView":0,"byteOffset":0,"componentType":5125,"count":5124,"type":"SCALAR"},{"bufferView":1,"byteOffset":0,"componentType":5126,"count":2562,"max":[35.12799835205078,28,11.399999618530273],"min":[-35.8388671875,-27.04800033569336,0.20000000298023224],"type":"VEC3"},{"bufferView":2,"byteOffset":0,"componentType":5126,"count":2562,"type":"VEC3"},{"bufferView":3,"byteOffset":0,"componentType":5126,"count":2562,"type":"VEC2"}],"bufferViews":[{"buffer":0,"byteOffset":0,"byteLength":20496,"target":34963},{"buffer":0,"byteOffset":20496,"byteLength":30744,"target":34962},{"buffer":0,"byteOffset":51240,"byteLength":30744,"target":34962},{"buffer":0,"byteOffset":81984,"byteLength":20496,"target":34962}],"cameras":[{"name":"Camera","type":"perspective","extras":{"targetDistance":0.21374477512881396},"perspective":{"aspectRatio":1.5700110253583242,"yfov":0.6108652381980153,"zfar":28.08510996589152,"znear":0.010638298155201963}}],"scene":0,"scenes":[{"nodes":[0,2],"name":"riolab"}],"extensionsUsed":["KHR_texture_transform"],"buffers":[{"byteLength":102480,"uri":"riolab.bin"}]}