<svg width="269" height="215" viewBox="0 0 269 215" fill="none" xmlns="http://www.w3.org/2000/svg">
<rect y="33" width="30" height="182" rx="15" fill="black"/>
<rect y="33" width="30" height="182" rx="15" fill="black"/>
<rect y="33" width="30" height="182" rx="15" fill="black"/>
<rect y="33" width="30" height="182" rx="15" fill="black"/>
<path d="M51 48C51 39.7157 57.7157 33 66 33V33C74.2843 33 81 39.7157 81 48V200C81 208.284 74.2843 215 66 215V215C57.7157 215 51 208.284 51 200V48Z" fill="black"/>
<path d="M51 48C51 39.7157 57.7157 33 66 33V33C74.2843 33 81 39.7157 81 48V200C81 208.284 74.2843 215 66 215V215C57.7157 215 51 208.284 51 200V48Z" fill="black"/>
<path d="M51 48C51 39.7157 57.7157 33 66 33V33C74.2843 33 81 39.7157 81 48V200C81 208.284 74.2843 215 66 215V215C57.7157 215 51 208.284 51 200V48Z" fill="black"/>
<path d="M51 48C51 39.7157 57.7157 33 66 33V33C74.2843 33 81 39.7157 81 48V200C81 208.284 74.2843 215 66 215V215C57.7157 215 51 208.284 51 200V48Z" fill="black"/>
<path d="M51 48C51 39.7157 57.7157 33 66 33V33C74.2843 33 81 39.7157 81 48V200C81 208.284 74.2843 215 66 215V215C57.7157 215 51 208.284 51 200V48Z" fill="black"/>
<path d="M51 48C51 39.7157 57.7157 33 66 33V33C74.2843 33 81 39.7157 81 48V200C81 208.284 74.2843 215 66 215V215C57.7157 215 51 208.284 51 200V48Z" fill="black"/>
<path d="M51 48C51 39.7157 57.7157 33 66 33V33C74.2843 33 81 39.7157 81 48V200C81 208.284 74.2843 215 66 215V215C57.7157 215 51 208.284 51 200V48Z" fill="black"/>
<path d="M51 48C51 39.7157 57.7157 33 66 33V33C74.2843 33 81 39.7157 81 48V200C81 208.284 74.2843 215 66 215V215C57.7157 215 51 208.284 51 200V48Z" fill="black"/>
<path d="M102 48C102 39.7157 108.716 33 117 33V33C125.284 33 132 39.7157 132 48V200C132 208.284 125.284 215 117 215V215C108.716 215 102 208.284 102 200V48Z" fill="black"/>
<path d="M102 48C102 39.7157 108.716 33 117 33V33C125.284 33 132 39.7157 132 48V200C132 208.284 125.284 215 117 215V215C108.716 215 102 208.284 102 200V48Z" fill="black"/>
<path d="M102 48C102 39.7157 108.716 33 117 33V33C125.284 33 132 39.7157 132 48V200C132 208.284 125.284 215 117 215V215C108.716 215 102 208.284 102 200V48Z" fill="black"/>
<path d="M102 48C102 39.7157 108.716 33 117 33V33C125.284 33 132 39.7157 132 48V200C132 208.284 125.284 215 117 215V215C108.716 215 102 208.284 102 200V48Z" fill="black"/>
<path d="M102 48C102 39.7157 108.716 33 117 33V33C125.284 33 132 39.7157 132 48V200C132 208.284 125.284 215 117 215V215C108.716 215 102 208.284 102 200V48Z" fill="black"/>
<path d="M102 48C102 39.7157 108.716 33 117 33V33C125.284 33 132 39.7157 132 48V200C132 208.284 125.284 215 117 215V215C108.716 215 102 208.284 102 200V48Z" fill="black"/>
<path d="M102 48C102 39.7157 108.716 33 117 33V33C125.284 33 132 39.7157 132 48V200C132 208.284 125.284 215 117 215V215C108.716 215 102 208.284 102 200V48Z" fill="black"/>
<path d="M102 48C102 39.7157 108.716 33 117 33V33C125.284 33 132 39.7157 132 48V200C132 208.284 125.284 215 117 215V215C108.716 215 102 208.284 102 200V48Z" fill="black"/>
<path d="M153 48C153 39.7157 159.716 33 168 33V33C176.284 33 183 39.7157 183 48V200C183 208.284 176.284 215 168 215V215C159.716 215 153 208.284 153 200V48Z" fill="black"/>
<path d="M153 48C153 39.7157 159.716 33 168 33V33C176.284 33 183 39.7157 183 48V200C183 208.284 176.284 215 168 215V215C159.716 215 153 208.284 153 200V48Z" fill="black"/>
<path d="M153 48C153 39.7157 159.716 33 168 33V33C176.284 33 183 39.7157 183 48V200C183 208.284 176.284 215 168 215V215C159.716 215 153 208.284 153 200V48Z" fill="black"/>
<path d="M153 48C153 39.7157 159.716 33 168 33V33C176.284 33 183 39.7157 183 48V200C183 208.284 176.284 215 168 215V215C159.716 215 153 208.284 153 200V48Z" fill="black"/>
<path d="M153 48C153 39.7157 159.716 33 168 33V33C176.284 33 183 39.7157 183 48V200C183 208.284 176.284 215 168 215V215C159.716 215 153 208.284 153 200V48Z" fill="black"/>
<path d="M153 48C153 39.7157 159.716 33 168 33V33C176.284 33 183 39.7157 183 48V200C183 208.284 176.284 215 168 215V215C159.716 215 153 208.284 153 200V48Z" fill="black"/>
<path d="M153 48C153 39.7157 159.716 33 168 33V33C176.284 33 183 39.7157 183 48V200C183 208.284 176.284 215 168 215V215C159.716 215 153 208.284 153 200V48Z" fill="black"/>
<path d="M153 48C153 39.7157 159.716 33 168 33V33C176.284 33 183 39.7157 183 48V200C183 208.284 176.284 215 168 215V215C159.716 215 153 208.284 153 200V48Z" fill="black"/>
<g filter="url(#filter0_i_3_20)">
<path d="M194 16C194 7.71573 200.716 1 209 1V1C217.284 1 224 7.71573 224 16V200C224 208.284 217.284 215 209 215V215C200.716 215 194 208.284 194 200V16Z" fill="black"/>
<path d="M194 16C194 7.71573 200.716 1 209 1V1C217.284 1 224 7.71573 224 16V200C224 208.284 217.284 215 209 215V215C200.716 215 194 208.284 194 200V16Z" fill="black"/>
<path d="M194 16C194 7.71573 200.716 1 209 1V1C217.284 1 224 7.71573 224 16V200C224 208.284 217.284 215 209 215V215C200.716 215 194 208.284 194 200V16Z" fill="black"/>
<path d="M194 16C194 7.71573 200.716 1 209 1V1C217.284 1 224 7.71573 224 16V200C224 208.284 217.284 215 209 215V215C200.716 215 194 208.284 194 200V16Z" fill="black"/>
<path d="M194 16C194 7.71573 200.716 1 209 1V1C217.284 1 224 7.71573 224 16V200C224 208.284 217.284 215 209 215V215C200.716 215 194 208.284 194 200V16Z" fill="black"/>
<path d="M194 16C194 7.71573 200.716 1 209 1V1C217.284 1 224 7.71573 224 16V200C224 208.284 217.284 215 209 215V215C200.716 215 194 208.284 194 200V16Z" fill="black"/>
<path d="M194 16C194 7.71573 200.716 1 209 1V1C217.284 1 224 7.71573 224 16V200C224 208.284 217.284 215 209 215V215C200.716 215 194 208.284 194 200V16Z" fill="black"/>
<path d="M194 16C194 7.71573 200.716 1 209 1V1C217.284 1 224 7.71573 224 16V200C224 208.284 217.284 215 209 215V215C200.716 215 194 208.284 194 200V16Z" fill="black"/>
</g>
<path d="M209 215V215C217.284 215 224 208.284 224 200V16C224 7.71573 217.284 1 209 1V1C200.716 1 194 7.71573 194 16V200C194 208.284 200.716 215 209 215Z" stroke="black" stroke-linejoin="round"/>
<path d="M235 88C235 79.7157 241.716 73 250 73V73C258.284 73 265 79.7157 265 88V200C265 208.284 258.284 215 250 215V215C241.716 215 235 208.284 235 200V88Z" fill="black"/>
<path d="M235 88C235 79.7157 241.716 73 250 73V73C258.284 73 265 79.7157 265 88V200C265 208.284 258.284 215 250 215V215C241.716 215 235 208.284 235 200V88Z" fill="black"/>
<path d="M235 88C235 79.7157 241.716 73 250 73V73C258.284 73 265 79.7157 265 88V200C265 208.284 258.284 215 250 215V215C241.716 215 235 208.284 235 200V88Z" fill="black"/>
<path d="M235 88C235 79.7157 241.716 73 250 73V73C258.284 73 265 79.7157 265 88V200C265 208.284 258.284 215 250 215V215C241.716 215 235 208.284 235 200V88Z" fill="black"/>
<path d="M235 88C235 79.7157 241.716 73 250 73V73C258.284 73 265 79.7157 265 88V200C265 208.284 258.284 215 250 215V215C241.716 215 235 208.284 235 200V88Z" fill="black"/>
<path d="M235 88C235 79.7157 241.716 73 250 73V73C258.284 73 265 79.7157 265 88V200C265 208.284 258.284 215 250 215V215C241.716 215 235 208.284 235 200V88Z" fill="black"/>
<path d="M235 88C235 79.7157 241.716 73 250 73V73C258.284 73 265 79.7157 265 88V200C265 208.284 258.284 215 250 215V215C241.716 215 235 208.284 235 200V88Z" fill="black"/>
<path d="M235 88C235 79.7157 241.716 73 250 73V73C258.284 73 265 79.7157 265 88V200C265 208.284 258.284 215 250 215V215C241.716 215 235 208.284 235 200V88Z" fill="black"/>
<path d="M118 103C109.716 103 103 96.2843 103 88V88C103 79.7157 109.716 73 118 73L250 73C258.284 73 265 79.7157 265 88V88C265 96.2843 258.284 103 250 103L118 103Z" fill="black"/>
<path d="M118 103C109.716 103 103 96.2843 103 88V88C103 79.7157 109.716 73 118 73L250 73C258.284 73 265 79.7157 265 88V88C265 96.2843 258.284 103 250 103L118 103Z" fill="black"/>
<path d="M118 103C109.716 103 103 96.2843 103 88V88C103 79.7157 109.716 73 118 73L250 73C258.284 73 265 79.7157 265 88V88C265 96.2843 258.284 103 250 103L118 103Z" fill="black"/>
<path d="M118 103C109.716 103 103 96.2843 103 88V88C103 79.7157 109.716 73 118 73L250 73C258.284 73 265 79.7157 265 88V88C265 96.2843 258.284 103 250 103L118 103Z" fill="black"/>
<path d="M118 103C109.716 103 103 96.2843 103 88V88C103 79.7157 109.716 73 118 73L250 73C258.284 73 265 79.7157 265 88V88C265 96.2843 258.284 103 250 103L118 103Z" fill="black"/>
<path d="M118 103C109.716 103 103 96.2843 103 88V88C103 79.7157 109.716 73 118 73L250 73C258.284 73 265 79.7157 265 88V88C265 96.2843 258.284 103 250 103L118 103Z" fill="black"/>
<path d="M118 103C109.716 103 103 96.2843 103 88V88C103 79.7157 109.716 73 118 73L250 73C258.284 73 265 79.7157 265 88V88C265 96.2843 258.284 103 250 103L118 103Z" fill="black"/>
<path d="M118 103C109.716 103 103 96.2843 103 88V88C103 79.7157 109.716 73 118 73L250 73C258.284 73 265 79.7157 265 88V88C265 96.2843 258.284 103 250 103L118 103Z" fill="black"/>
<path d="M51.9904 45C52 18.7544 29 18.7544 29 45H1C1 -13.3533 79.9851 -13.9792 79.9851 45H51.9904Z" fill="black" stroke="black" stroke-width="2"/>
<path d="M102.99 45C103 18.7544 80 18.7544 80 45H52C52 -13.3533 130.985 -13.9792 130.985 45H102.99Z" fill="black" stroke="black" stroke-width="2"/>
<path d="M153.99 45C154 18.7544 131 18.7544 131 45H103C103 -13.3533 181.985 -13.9792 181.985 45H153.99Z" fill="black" stroke="black" stroke-width="2"/>
<circle cx="250.5" cy="44.5" r="18.5" fill="black"/>
<defs>
<filter id="filter0_i_3_20" x="194" y="1" width="30" height="218" filterUnits="userSpaceOnUse" color-interpolation-filters="sRGB">
<feFlood flood-opacity="0" result="BackgroundImageFix"/>
<feBlend mode="normal" in="SourceGraphic" in2="BackgroundImageFix" result="shape"/>
<feColorMatrix in="SourceAlpha" type="matrix" values="0 0 0 0 0 0 0 0 0 0 0 0 0 0 0 0 0 0 127 0" result="hardAlpha"/>
<feOffset dy="4"/>
<feGaussianBlur stdDeviation="2"/>
<feComposite in2="hardAlpha" operator="arithmetic" k2="-1" k3="1"/>
<feColorMatrix type="matrix" values="0 0 0 0 0 0 0 0 0 0 0 0 0 0 0 0 0 0 0.25 0"/>
<feBlend mode="normal" in2="shape" result="effect1_innerShadow_3_20"/>
</filter>
</defs>
</svg>
