{"asset":{"version":"2.0","generator":"VECTARY"},"nodes":[{"translation":[0,0,0],"scale":[0.001,0.001,0.001],"rotation":[-0.7071067811865475,0,0,0.7071067811865476],"name":"Octicons-mark-github","children":[1]},{"translation":[0,0,0],"scale":[1,0.9999999999999998,0.9999999999999998],"rotation":[0.7099497963491467,0,0,0.7042522890724638],"name":"Path","mesh":0}],"materials":[{"pbrMetallicRoughness":{"baseColorFactor":[0.007155037004573032,0.009696328701658229,0.012663720031582098,1],"metallicFactor":0,"roughnessFactor":1},"name":"","emissiveFactor":[0,0,0],"extensions":{},"alphaMode":"OPAQUE","doubleSided":true}],"meshes":[{"primitives":[{"mode":4,"attributes":{"POSITION":1,"NORMAL":2,"TEXCOORD_0":3},"material":0,"indices":0}]}],"accessors":[{"bufferView":0,"byteOffset":0,"componentType":5125,"count":8988,"type":"SCALAR"},{"bufferView":1,"byteOffset":0,"componentType":5126,"count":4500,"max":[512,512,47.79999923706055],"min":[-512,-486.73773193359375,0.20000000298023224],"type":"VEC3"},{"bufferView":2,"byteOffset":0,"componentType":5126,"count":4500,"type":"VEC3"},{"bufferView":3,"byteOffset":0,"componentType":5126,"count":4500,"type":"VEC2"}],"bufferViews":[{"buffer":0,"byteOffset":0,"byteLength":35952,"target":34963},{"buffer":0,"byteOffset":35952,"byteLength":54000,"target":34962},{"buffer":0,"byteOffset":89952,"byteLength":54000,"target":34962},{"buffer":0,"byteOffset":143952,"byteLength":36000,"target":34962}],"scene":0,"scenes":[{"nodes":[0],"name":"github"}],"extensionsUsed":["KHR_texture_transform"],"buffers":[{"byteLength":179952,"uri":"github.bin"}]}